<?xml version="1.0" encoding="utf-8"?>
<!-- Generator: Adobe Illustrator 16.0.0, SVG Export Plug-In . SVG Version: 6.00 Build 0)  -->
<!DOCTYPE svg PUBLIC "-//W3C//DTD SVG 1.1//EN" "http://www.w3.org/Graphics/SVG/1.1/DTD/svg11.dtd">
<svg version="1.1" xmlns="http://www.w3.org/2000/svg" xmlns:xlink="http://www.w3.org/1999/xlink" x="0px" y="0px" width="700px"
	 height="700px" viewBox="0 0 700 700" style="enable-background:new 0 0 700 700;" xml:space="preserve">
<style type="text/css">
<![CDATA[
	.st0{fill:none;stroke:#FFFFFF;stroke-width:2;stroke-miterlimit:10;}
	.st1{clip-path:url(#SVGID_2_);}
	.st2{fill:#FFFFFF;}
	.st3{display:inline;}
	.st4{display:none;}
]]>
</style>
<g id="Layer_2">
	<g>
		<g>
			<path class="st2" d="M104,91.2c0.3,0.1,0.7,0.3,1,0.4c-0.5-0.2,1.6,0.7,2.6,1.2c3.8,1.8,7.4,4.1,10.9,6.5
				c9.3,6.7,16,16.7,16.2,28.4c0.1,6.4,10.1,6.5,10,0c-0.4-22-18.3-39-38-46.2C100.6,79.3,98,89,104,91.2L104,91.2z"/>
		</g>
	</g>
	<g>
		<g>
			<path class="st2" d="M96.2,114c2.6,12.6,8.2,25,16.3,34.9c4.1,5,11.1-2.1,7.1-7.1c-7-8.6-11.5-19.7-13.7-30.5
				C104.5,105,94.9,107.7,96.2,114L96.2,114z"/>
		</g>
	</g>
	<g>
		<g>
			<path class="st2" d="M232,113.2c6.6-15,20.9-26.3,37.7-25.2c6.4,0.4,6.4-9.6,0-10c-19.9-1.3-38.4,12.2-46.3,30.1
				C220.8,114,229.4,119.1,232,113.2L232,113.2z"/>
		</g>
	</g>
	<g>
		<g>
			<path class="st2" d="M259.5,98c-1.8,12.3-7.5,25-17,33.1c-4.9,4.2,2.2,11.2,7.1,7.1c10.7-9.1,17.5-23.7,19.6-37.5
				C270.1,94.4,260.5,91.6,259.5,98L259.5,98z"/>
		</g>
	</g>
	<g>
		<g>
			<path class="st2" d="M159.7,192.7c-14.2,0.3-29.5,0.3-43.3,3.8c-6.2,1.6-3.6,11.3,2.7,9.6c13-3.4,27.3-3.2,40.7-3.5
				C166.1,202.5,166.1,192.5,159.7,192.7L159.7,192.7z"/>
		</g>
	</g>
	<path class="st0" d="M198.7,196.3"/>
	<g>
		<g>
			<path class="st2" d="M196.7,201.3c16.7,1.9,33.5,4,50,7.5c6.3,1.3,9-8.3,2.7-9.6c-17.3-3.6-35.1-5.8-52.7-7.8
				C190.3,190.6,190.3,200.6,196.7,201.3L196.7,201.3z"/>
		</g>
	</g>
	<g>
		<g>
			<path class="st2" d="M120.2,242c13.5-8.4,27.7-15.8,42.3-22c5.9-2.5,0.8-11.1-5-8.6c-14.6,6.2-28.9,13.6-42.3,22
				C109.7,236.8,114.7,245.4,120.2,242L120.2,242z"/>
		</g>
	</g>
	<g>
		<g>
			<path class="st2" d="M192,219.5c7.5,2.2,15,4.5,22.5,6.9c9.3,2.9,19.9,5.5,28.3,10c5.7,3,10.8-5.6,5-8.6
				c-9.2-4.8-19.8-7.5-29.7-10.6c-7.8-2.5-15.7-4.9-23.5-7.2C188.5,208,185.8,217.7,192,219.5L192,219.5z"/>
		</g>
	</g>
	<g>
		<g>
			<path class="st2" d="M218.2,553.3c-5.4-28.2-5.2-60.3,2-88.5c5.9-22.8,18.4-42.4,37.9-56c11.1-7.7,24-12.8,37.5-13.9
				c10.3-0.8,21-0.9,30.8,2.7c6,2.2,10.8,6.8,14.7,11.8c4,5.1,11-2.1,7.1-7.1c-14.8-18.9-40-20-62-16.2
				c-24.6,4.3-46.6,21.1-60.5,41.3c-12.4,18-17.5,40.2-19.8,61.5c-1.8,17.6-1.4,35.5,0.7,53c0.5,4.6,1.1,9.3,2,13.9
				C209.7,562.3,219.4,559.6,218.2,553.3L218.2,553.3z"/>
		</g>
	</g>
	<path class="st0" d="M241.8,419.1"/>
	<g>
		<g>
			<path class="st2" d="M159.2,428.7c5.1,15.5,7.5,32.1,8.7,48.2c2.6,34.2-2.6,69.4-19.6,99.6c-3.2,5.6,5.5,10.7,8.6,5
				c17.7-31.4,23.3-67.7,21-103.3c-1.1-17.4-3.7-35.5-9.2-52.2C166.8,419.9,157.2,422.5,159.2,428.7L159.2,428.7z"/>
		</g>
	</g>
	<g>
		<g>
			<path class="st2" d="M197,622.7c15.5-0.3,31.3-2.8,46.4-6.2c27.9-6.2,56.6-17.4,76.8-38.3c4.5-4.6-2.6-11.7-7.1-7.1
				c-19.1,19.8-46.1,29.8-72.4,35.7c-14.3,3.2-29.1,5.5-43.8,5.8C190.6,612.8,190.5,622.8,197,622.7L197,622.7z"/>
		</g>
	</g>
	<g>
		<g>
			<path class="st2" d="M273,176c16-1.8,32.8-0.3,48.6,2.2c38.1,5.9,74.2,20.9,105.3,43.7c43.3,31.8,76.4,79.6,88.9,131.9
				c11,46.1,4.5,95.1-14.1,138.3c-9.7,22.6-22.8,44-39.1,62.3c-4.3,4.8,2.8,11.9,7.1,7.1c27.2-30.6,46.1-68.8,55.4-108.6
				c11.4-48.9,6.3-99.8-14.9-145.3c-21.7-46.4-59.3-86.1-104-111c-30.5-17.1-64.8-27.1-99.6-30.3c-11-1-22.4-1.6-33.5-0.3
				C266.7,166.7,266.6,176.7,273,176L273,176z"/>
		</g>
	</g>
	<g>
		<g>
			<path class="st2" d="M534.3,503.8c26.6-6.8,56.9-6.8,83.2,0.8c22.3,6.4,45.2,21.6,54,43.9c6.9,17.3,0.2,35.2-11.8,48.4
				c-10.7,11.8-27.1,20.4-41.8,27.8c-26.9,13.4-55.8,22.5-85,29.3c-57.2,13.4-116.3,17.7-175,18.1c-6.4,0-6.5,10,0,10
				c52.7-0.3,105.6-4,157.4-14.1c32.7-6.4,64.9-15.5,95.4-28.9c16.1-7.1,31.7-15.6,45.9-26.1c11.3-8.3,20.2-20,24.9-33.3
				c8.1-22.9-3.1-45.2-19.5-61.1c-21.6-21-52.5-28.5-81.8-29.2c-16.1-0.4-33.1,1-48.8,4.9C525.4,495.8,528.1,505.4,534.3,503.8
				L534.3,503.8z"/>
		</g>
	</g>
	<g>
		<g>
			<path class="st2" d="M546.5,535c19.5-0.8,63.2,1.7,59.5,30c-0.8,6.4,9.2,6.3,10,0c4.6-35.2-44.5-41-69.5-40
				C540.1,525.3,540,535.3,546.5,535L546.5,535z"/>
		</g>
	</g>
	<g>
		<g>
			<path class="st2" d="M93,174.8c-5.1,14.6-8.4,29.9-11.2,45c-6.5,34.5-9,70-5.9,105c5,56.5,26.1,110.8,66.6,151.3
				c4.6,4.6,11.6-2.5,7.1-7.1C89.8,409.3,77,321.7,88.4,241c3-21.3,7.2-43.1,14.3-63.5C104.8,171.4,95.1,168.8,93,174.8L93,174.8z"
				/>
		</g>
	</g>
</g>
<g id="Layer_1" class="st4">
	<g class="st3">
		<g>
			<defs>
				<rect id="SVGID_1_" x="-264" width="1014" height="911"/>
			</defs>
			<clipPath id="SVGID_2_">
				<use xlink:href="#SVGID_1_"  style="overflow:visible;"/>
			</clipPath>
			<g class="st1">
				<defs>
					<rect id="SVGID_3_" x="-264" width="1014" height="911"/>
				</defs>
				<clipPath id="SVGID_4_">
					<use xlink:href="#SVGID_3_"  style="overflow:visible;"/>
				</clipPath>
				<g transform="matrix(1 0 0 1 0 0)" style="clip-path:url(#SVGID_4_);">
					
						<image style="overflow:visible;" width="1624" height="1459" xlink:href="7989484A.jpg"  transform="matrix(0.6244 0 0 0.6244 -264.0264 0)">
					</image>
				</g>
			</g>
		</g>
	</g>
</g>
</svg>
